<svg width="117" height="120" viewBox="0 0 117 120" fill="none" xmlns="http://www.w3.org/2000/svg">
<path d="M46.2803 22.9381H0.282148C0.218865 22.9381 0.158175 22.913 0.113427 22.8682C0.0686797 22.8235 0.043541 22.7628 0.043541 22.6995L0.0382385 0.238608C0.0382385 0.207273 0.0444102 0.176246 0.0564013 0.147297C0.0683925 0.118348 0.085968 0.092043 0.108125 0.0698862C0.130281 0.0477295 0.156585 0.030155 0.185534 0.0181638C0.214484 0.00617269 0.245512 0 0.276846 0L116.023 0.00530149C116.054 0.00530149 116.085 0.0114742 116.114 0.0234653C116.143 0.0354564 116.169 0.053033 116.191 0.0751897C116.213 0.0973465 116.231 0.123649 116.243 0.152598C116.255 0.181548 116.261 0.212575 116.261 0.243909L116.251 22.7048C116.251 22.7681 116.225 22.8288 116.181 22.8735C116.136 22.9183 116.075 22.9434 116.012 22.9434L70.0138 22.9381C69.9505 22.9381 69.8898 22.9632 69.845 23.008C69.8003 23.0527 69.7752 23.1134 69.7752 23.1767L69.7698 61.2584C69.7698 61.3217 69.7447 61.3824 69.7 61.4271C69.6552 61.4719 69.5945 61.497 69.5312 61.497L46.7575 61.4917C46.6942 61.4917 46.6335 61.4666 46.5888 61.4218C46.544 61.3771 46.5189 61.3164 46.5189 61.2531V23.1767C46.5189 23.1134 46.4938 23.0527 46.449 23.008C46.4043 22.9632 46.3436 22.9381 46.2803 22.9381Z" fill="#B4D91E"/>
<path d="M57.0706 96.9543C72.299 97.3307 85.3111 88.5977 90.7884 74.4456C92.517 69.9757 93.1109 65.8293 93.0526 60.792C92.9995 55.935 93.0031 51.2159 93.0632 46.6347C93.0645 46.6004 93.0791 46.5681 93.1038 46.5443C93.1285 46.5206 93.1615 46.5074 93.1957 46.5074L116.001 46.5233C116.061 46.5233 116.118 46.5472 116.161 46.5898C116.203 46.6324 116.228 46.6904 116.229 46.7513C116.307 51.6401 116.298 56.5996 116.203 61.6298C115.892 77.6394 110.391 91.2507 99.7017 102.463C76.4667 126.828 36.4921 125.561 14.5137 100.183C6.88533 91.3779 2.29347 81.2574 0.7381 69.822C-0.301166 62.1865 0.085908 54.3867 0.0116747 46.7884C0.0116747 46.7055 0.0446339 46.6259 0.103303 46.5672C0.161972 46.5085 0.241544 46.4756 0.324514 46.4756H23.0452C23.093 46.4756 23.1389 46.4946 23.1727 46.5284C23.2065 46.5622 23.2255 46.6081 23.2255 46.6559C23.2962 50.7034 23.2944 54.9028 23.2202 59.2543C23.1495 63.4821 23.3793 66.7749 23.9095 69.1327C27.4515 84.9815 40.5855 96.5513 57.0706 96.9543Z" fill="#B4D91E"/>
</svg>
